<svg width="23.000000" height="23.000000" viewBox="0 0 23 23" fill="none" xmlns="http://www.w3.org/2000/svg" xmlns:xlink="http://www.w3.org/1999/xlink">
	<desc>
			Created with Pixso.
	</desc>
	<defs/>
	<path id="Vector" d="M23 11.5703C23 5.18018 17.8515 0 11.5015 0C5.1485 0.00146484 0 5.18018 0 11.5718C0 17.3457 4.20563 22.1318 9.7019 23L9.7019 14.915L6.78418 14.915L6.78418 11.5718L9.70477 11.5718L9.70477 9.02051C9.70477 6.12158 11.4224 4.52051 14.0483 4.52051C15.3074 4.52051 16.6226 4.74609 16.6226 4.74609L16.6226 7.5918L15.1724 7.5918C13.7451 7.5918 13.2995 8.48438 13.2995 9.3999L13.2995 11.5703L16.4875 11.5703L15.9787 14.9136L13.2981 14.9136L13.2981 22.9985C18.7944 22.1304 23 17.3442 23 11.5703Z" fill="#23A6F0" fill-opacity="1.000000" fill-rule="evenodd"/>
</svg>
