<svg width="22.000000" height="22.000000" viewBox="0 0 22 22" fill="none" xmlns="http://www.w3.org/2000/svg" xmlns:xlink="http://www.w3.org/1999/xlink">
	<desc>
			Created with Pixso.
	</desc>
	<defs/>
	<path id="Vector" d="M11 0C8.01489 0 7.63953 0.0136719 6.46661 0.065918C5.29376 0.121094 4.49487 0.305176 3.79498 0.577637C3.06085 0.853516 2.39594 1.28662 1.84662 1.84668C1.28711 2.396 0.854004 3.06104 0.577515 3.79492C0.305237 4.49365 0.119629 5.29395 0.065979 6.4624C0.0137329 7.63818 0 8.01221 0 11.0015C0 13.9878 0.0137329 14.3618 0.065979 15.5347C0.120972 16.7061 0.305237 17.5049 0.577515 18.2051C0.859375 18.9282 1.23474 19.5415 1.84662 20.1533C2.45715 20.7651 3.07037 21.1421 3.79364 21.4224C4.49487 21.6948 5.29236 21.8804 6.46387 21.9341C7.63812 21.9863 8.01215 22 11 22C13.9879 22 14.3605 21.9863 15.5347 21.9341C16.7049 21.8789 17.5065 21.6948 18.2064 21.4224C18.94 21.146 19.6045 20.7129 20.1534 20.1533C20.7653 19.5415 21.1406 18.9282 21.4225 18.2051C21.6934 17.5049 21.879 16.7061 21.934 15.5347C21.9863 14.3618 22 13.9878 22 11C22 8.01221 21.9863 7.63818 21.934 6.46387C21.879 5.29395 21.6934 4.49365 21.4225 3.79492C21.146 3.06104 20.713 2.396 20.1534 1.84668C19.6042 1.28662 18.9393 0.853516 18.205 0.577637C17.5037 0.305176 16.7035 0.119629 15.5334 0.065918C14.3591 0.0136719 13.9865 0 10.9973 0L11.0014 0L11 0ZM10.0141 1.98291L11.0014 1.98291C13.9384 1.98291 14.2863 1.99219 15.4454 2.0459C16.5179 2.09424 17.1009 2.27441 17.4886 2.42432C18.0015 2.62354 18.3687 2.86279 18.7536 3.24756C19.1386 3.63281 19.3765 3.99854 19.5759 4.5127C19.7271 4.89893 19.9059 5.48193 19.954 6.55469C20.0076 7.71387 20.0186 8.06152 20.0186 10.9971C20.0186 13.9331 20.0076 14.2822 19.954 15.4414C19.9059 16.5137 19.7258 17.0952 19.5759 17.4829C19.3995 17.9609 19.118 18.3926 18.7523 18.7466C18.3672 19.1318 18.0015 19.3696 17.4872 19.5688C17.1022 19.7202 16.5192 19.8989 15.4454 19.9487C14.2863 20.001 13.9384 20.0132 11.0014 20.0132C8.06439 20.0132 7.71515 20.001 6.55603 19.9487C5.48352 19.8989 4.90186 19.7202 4.5141 19.5688C4.03632 19.3931 3.60406 19.1118 3.24915 18.7466C2.88306 18.3921 2.60114 17.96 2.42413 17.4819C2.27423 17.0952 2.09412 16.5122 2.04602 15.4399C1.99377 14.2808 1.98273 13.9331 1.98273 10.9946C1.98273 8.05762 1.99377 7.71094 2.04602 6.55176C2.09552 5.47949 2.27423 4.89648 2.42548 4.50879C2.62488 3.99561 2.86414 3.62842 3.24915 3.24365C3.63416 2.8584 3.99988 2.62061 4.5141 2.42139C4.90186 2.27002 5.48352 2.09131 6.55603 2.04199C7.57074 1.99512 7.96399 1.98145 10.0141 1.97998L10.0141 1.98291ZM16.8726 3.80859C16.6993 3.80859 16.5276 3.84277 16.3675 3.90918C16.2073 3.97559 16.0618 4.07275 15.9393 4.19531C15.8167 4.31787 15.7194 4.46338 15.6531 4.62354C15.5868 4.78369 15.5526 4.95557 15.5526 5.12891C15.5526 5.30225 15.5868 5.47363 15.6531 5.63379C15.7194 5.79395 15.8167 5.93945 15.9393 6.06201C16.0618 6.18457 16.2073 6.28174 16.3675 6.34814C16.5276 6.41455 16.6993 6.44873 16.8726 6.44873C17.2227 6.44873 17.5585 6.30957 17.806 6.06201C18.0535 5.81445 18.1926 5.479 18.1926 5.12891C18.1926 4.77881 18.0535 4.44287 17.806 4.19531C17.5585 3.94775 17.2227 3.80859 16.8726 3.80859ZM11.0014 5.35156C10.2521 5.33984 9.508 5.47705 8.81232 5.75586C8.1167 6.03467 7.48346 6.44873 6.94946 6.97461C6.41547 7.50049 5.99139 8.12695 5.7019 8.81836C5.41241 9.50928 5.26337 10.2515 5.26337 11.0005C5.26337 11.75 5.41241 12.4917 5.7019 13.1831C5.99139 13.8745 6.41547 14.501 6.94946 15.0269C7.48346 15.5527 8.1167 15.9668 8.81232 16.2456C9.508 16.5239 10.2521 16.6616 11.0014 16.6499C12.4844 16.627 13.8988 16.0215 14.9393 14.9644C15.9799 13.9077 16.5631 12.4839 16.5631 11.0005C16.5631 9.51758 15.9799 8.09375 14.9393 7.03711C13.8988 5.97998 12.4844 5.37451 11.0014 5.35156ZM11.0014 7.33301C11.9739 7.33301 12.9067 7.71924 13.5944 8.40674C14.2822 9.09473 14.6685 10.0273 14.6685 11C14.6685 11.9727 14.2822 12.9053 13.5944 13.5933C12.9067 14.2808 11.9739 14.667 11.0014 14.667C10.0288 14.667 9.09607 14.2808 8.40833 13.5933C7.72058 12.9053 7.33423 11.9727 7.33423 11C7.33423 10.0273 7.72058 9.09473 8.40833 8.40674C9.09607 7.71924 10.0288 7.33301 11.0014 7.33301Z" fill="#23A6F0" fill-opacity="1.000000" fill-rule="nonzero"/>
</svg>
