<svg width="22.000000" height="18.000000" viewBox="0 0 22 18" fill="none" xmlns="http://www.w3.org/2000/svg" xmlns:xlink="http://www.w3.org/1999/xlink">
	<desc>
			Created with Pixso.
	</desc>
	<defs/>
	<path id="Vector" d="M6.91077 18C15.213 18 19.7546 11.0732 19.7546 5.07666C19.7546 4.88281 19.7546 4.68604 19.7464 4.49219C20.6306 3.84766 21.3937 3.0498 22 2.13574C21.1741 2.50244 20.2988 2.74414 19.4026 2.85303C20.3466 2.28516 21.0536 1.39111 21.3923 0.337402C20.5054 0.866699 19.5347 1.23779 18.5226 1.43555C17.8422 0.705566 16.942 0.222168 15.9611 0.0600586C14.9803 -0.102051 13.9738 0.065918 13.0974 0.538086C12.2209 1.01025 11.5236 1.76025 11.1133 2.67188C10.7031 3.5835 10.6028 4.60596 10.8281 5.58057C9.03339 5.49023 7.27765 5.02051 5.67468 4.20264C4.07172 3.38477 2.65747 2.23682 1.5235 0.833008C0.947815 1.83398 0.772156 3.01855 1.03217 4.14502C1.29211 5.27197 1.96826 6.25684 2.92328 6.8999C2.20764 6.87549 1.50769 6.68213 0.880005 6.33545L0.880005 6.39746C0.881226 7.44629 1.24207 8.4624 1.90143 9.27441C2.56085 10.0859 3.47839 10.6436 4.49902 10.853C4.11163 10.9604 3.71143 11.0142 3.30963 11.0122C3.02637 11.0132 2.74365 10.9868 2.46539 10.9331C2.75385 11.8359 3.31549 12.6255 4.07172 13.1909C4.82794 13.7559 5.74078 14.0688 6.6825 14.0859C5.08276 15.3511 3.10669 16.0371 1.07251 16.0342C0.71405 16.0356 0.355896 16.0146 0 15.9717C2.06458 17.2969 4.46228 18.001 6.91077 18Z" fill="#23A6F0" fill-opacity="1.000000" fill-rule="nonzero"/>
</svg>
