<svg width="46.000000" height="46.000000" viewBox="0 0 46 46" fill="none" xmlns="http://www.w3.org/2000/svg" xmlns:xlink="http://www.w3.org/1999/xlink">
	<desc>
			Created with Pixso.
	</desc>
	<defs>
		<clipPath id="clip3006_10971">
			<rect id="icon" width="16.000000" height="16.000000" transform="translate(15.000000 15.000000)" fill="white" fill-opacity="0"/>
		</clipPath>
		<clipPath id="clip3006_10970">
			<rect id="btn-sm-24" rx="2.500000" width="45.000000" height="45.000000" transform="translate(0.500000 0.500000)" fill="white" fill-opacity="0"/>
		</clipPath>
	</defs>
	<g clip-path="url(#clip3006_10970)">
		<rect id="icon" width="16.000000" height="16.000000" transform="translate(15.000000 15.000000)" fill="#FFFFFF" fill-opacity="0"/>
		<g clip-path="url(#clip3006_10971)">
			<path id="Vector" d="M16 17.5C16 17.1022 16.158 16.7207 16.4393 16.4393C16.7206 16.1581 17.1022 16 17.5 16L20.5 16C20.8978 16 21.2794 16.1581 21.5607 16.4393C21.842 16.7207 22 17.1022 22 17.5L22 20.5C22 20.8978 21.842 21.2793 21.5607 21.5607C21.2794 21.8419 20.8978 22 20.5 22L17.5 22C17.1022 22 16.7206 21.8419 16.4393 21.5607C16.158 21.2793 16 20.8978 16 20.5L16 17.5ZM24 17.5C24 17.1022 24.158 16.7207 24.4393 16.4393C24.7206 16.1581 25.1022 16 25.5 16L28.5 16C28.8978 16 29.2794 16.1581 29.5607 16.4393C29.842 16.7207 30 17.1022 30 17.5L30 20.5C30 20.8978 29.842 21.2793 29.5607 21.5607C29.2794 21.8419 28.8978 22 28.5 22L25.5 22C25.1022 22 24.7206 21.8419 24.4393 21.5607C24.158 21.2793 24 20.8978 24 20.5L24 17.5ZM16 25.5C16 25.1022 16.158 24.7207 16.4393 24.4393C16.7206 24.1581 17.1022 24 17.5 24L20.5 24C20.8978 24 21.2794 24.1581 21.5607 24.4393C21.842 24.7207 22 25.1022 22 25.5L22 28.5C22 28.8978 21.842 29.2793 21.5607 29.5607C21.2794 29.8419 20.8978 30 20.5 30L17.5 30C17.1022 30 16.7206 29.8419 16.4393 29.5607C16.158 29.2793 16 28.8978 16 28.5L16 25.5ZM24 25.5C24 25.1022 24.158 24.7207 24.4393 24.4393C24.7206 24.1581 25.1022 24 25.5 24L28.5 24C28.8978 24 29.2794 24.1581 29.5607 24.4393C29.842 24.7207 30 25.1022 30 25.5L30 28.5C30 28.8978 29.842 29.2793 29.5607 29.5607C29.2794 29.8419 28.8978 30 28.5 30L25.5 30C25.1022 30 24.7206 29.8419 24.4393 29.5607C24.158 29.2793 24 28.8978 24 28.5L24 25.5Z" fill="#252B42" fill-opacity="1.000000" fill-rule="nonzero"/>
		</g>
	</g>
	<rect id="btn-sm-24" rx="2.500000" width="45.000000" height="45.000000" transform="translate(0.500000 0.500000)" stroke="#ECECEC" stroke-opacity="1.000000" stroke-width="1.000000"/>
</svg>
