<svg width="16.000000" height="16.000000" viewBox="0 0 16 16" fill="none" xmlns="http://www.w3.org/2000/svg" xmlns:xlink="http://www.w3.org/1999/xlink">
	<desc>
			Created with Pixso.
	</desc>
	<defs>
		<clipPath id="clip3006_10481">
			<rect id="icn settings icn-xs" width="16.000000" height="16.000000" fill="white" fill-opacity="0"/>
		</clipPath>
	</defs>
	<rect id="icn settings icn-xs" width="16.000000" height="16.000000" fill="#FFFFFF" fill-opacity="0"/>
	<g clip-path="url(#clip3006_10481)">
		<path id="Vector" d="M-0.5 4C-0.5 3.4696 -0.289307 2.96082 0.0858154 2.58582C0.460815 2.21069 0.969604 2 1.5 2L13.5 2C14.0304 2 14.5392 2.21069 14.9142 2.58582C15.2893 2.96082 15.5 3.4696 15.5 4L15.5 12C15.5 12.5304 15.2893 13.0392 14.9142 13.4142C14.5392 13.7893 14.0304 14 13.5 14L1.5 14C0.969604 14 0.460815 13.7893 0.0858154 13.4142C-0.289307 13.0392 -0.5 12.5304 -0.5 12L-0.5 4ZM1.5 3C1.23474 3 0.980469 3.10535 0.792847 3.29285C0.605347 3.48047 0.5 3.73474 0.5 4L0.5 4.21704L7.5 8.41699L14.5 4.21704L14.5 4C14.5 3.73474 14.3947 3.48047 14.2072 3.29285C14.0195 3.10535 13.7653 3 13.5 3L1.5 3ZM14.5 5.38306L9.74194 8.23804L14.5 11.114L14.5 5.38403L14.5 5.38306ZM14.4659 12.261L8.771 8.81995L7.5 9.58301L6.22803 8.81995L0.534058 12.26C0.591187 12.4724 0.716797 12.66 0.891479 12.7938C1.06616 12.9276 1.28003 13.0001 1.5 13L13.5 13C13.7198 13.0001 13.9336 12.9279 14.1083 12.7942C14.2828 12.6606 14.4086 12.4733 14.4659 12.261ZM0.5 11.114L5.25806 8.23804L0.5 5.38306L0.5 11.113L0.5 11.114Z" fill="#FFFFFF" fill-opacity="1.000000" fill-rule="nonzero"/>
	</g>
</svg>
