<svg width="148.979980" height="49.726074" viewBox="0 0 148.98 49.7261" fill="none" xmlns="http://www.w3.org/2000/svg" xmlns:xlink="http://www.w3.org/1999/xlink">
	<desc>
			Created with Pixso.
	</desc>
	<defs/>
	<path id="Vector" d="M33.6215 46.8867L42.5381 47.0742C39.465 45.9946 36.485 44.6802 33.6215 43.1309L33.6215 46.8867ZM47.0547 45.6426L47.0547 46.8867L42.5381 47.0742C51.0358 50.0088 58.8118 50.4077 64.5855 48.7646C59.9525 48.8115 53.9227 48.1543 47.0547 45.6426ZM142.252 18.6001C145.953 18.6001 148.98 15.5723 148.98 11.8164C148.98 8.06055 145.977 6.06494 142.252 6.06494C138.55 6.06494 135.523 8.08398 135.523 11.8164C135.523 15.5488 138.527 18.6001 142.252 18.6001ZM135.5 46.8867L148.98 46.8867L148.98 20.9478L135.5 20.9478L135.5 46.8867ZM118.342 46.8867L131.822 46.8867L131.822 1.0415L118.342 7.4502L118.342 46.8867ZM111.125 18.8584C106.888 14.5859 99.391 14.8442 99.391 14.8442C99.391 14.8442 91.8712 14.5859 87.6572 18.8584C83.42 23.1309 83.746 26.8164 83.746 31.2061C83.746 35.5957 83.42 39.2573 87.6572 43.5298C91.8944 47.8022 99.391 47.5439 99.391 47.5439C99.391 47.5439 106.911 47.8022 111.125 43.5298C115.362 39.2573 115.036 35.5957 115.036 31.2061C115.013 26.7925 115.339 23.1074 111.125 18.8584ZM101.859 35.7363C101.859 36.5815 101.44 38.6704 99.3677 38.6704C97.2957 38.6704 96.8766 36.5815 96.8766 35.7363L96.8766 26.2529C96.8766 24.2104 98.5761 23.6943 99.3677 23.6943C100.159 23.6943 101.859 24.187 101.859 26.2529L101.859 35.7363ZM77.1341 18.8584C72.8969 14.5859 65.4003 14.8442 65.4003 14.8442C65.4003 14.8442 57.9038 14.5859 53.6666 18.8584C53.2242 19.3047 52.8052 19.7739 52.4327 20.2671C43.5392 13.3184 35.5538 9.35156 28.6625 5.92432L28.6625 1.06494L23.4243 3.55322C10.7593 -1.63428 2.70398 -0.719238 0.771606 3.57666C0.771606 3.57666 -5.02539 11.2764 15.1594 29.5859L15.1594 46.8867L28.6393 46.8867L28.6393 40.1729C27.126 39.187 25.6127 38.1309 24.1227 36.9805C20.6771 34.3516 17.7437 31.9102 15.1827 29.6094L15.1827 22.3325C18.2325 25.7832 22.2835 29.7036 27.6149 34.1401L28.6625 34.9854L28.6625 27.9897C28.6625 26.3701 29.0583 23.7178 31.1769 23.7178C33.2955 23.7178 33.6447 25.3374 33.6447 27.2388L33.6447 38.6704C37.8353 41.5347 42.3286 43.8584 47.078 45.6191L47.078 23.5767C47.078 19.187 43.9583 14.7974 37.6259 14.7974C33.9474 14.7739 30.525 16.7222 28.6625 19.9385L28.6625 7.19189C38.4174 12.0977 48.1955 18.1074 51.9205 20.8774C49.5458 24.3047 49.7554 27.4736 49.7554 31.1353C49.7554 35.5249 49.4294 39.187 53.6666 43.4595C57.9038 47.7314 65.4003 47.4736 65.4003 47.4736C65.4003 47.4736 72.9202 47.7314 77.1341 43.4595C81.3713 39.187 81.0221 35.5249 81.0221 31.1353C81.0221 26.7925 81.3713 23.1074 77.1341 18.8584ZM15.1594 7.4502L15.1594 22.3091C3.82147 9.51562 6.10303 4.46875 6.96442 3.74121C10.1074 1.06494 15.6949 1.86328 21.9575 4.23389L15.1594 7.4502ZM67.8915 35.7363C67.8915 36.5815 67.4724 38.6704 65.4003 38.6704C63.3283 38.6704 62.9092 36.5815 62.9092 35.7363L62.9092 26.2529C62.9092 24.2104 64.6088 23.6943 65.4003 23.6943C66.1919 23.6943 67.8915 24.187 67.8915 26.2529L67.8915 35.7363Z" fill="#737373" fill-opacity="1.000000" fill-rule="nonzero"/>
</svg>
