<svg width="146.000000" height="99.000000" viewBox="0 0 146 99" fill="none" xmlns="http://www.w3.org/2000/svg" xmlns:xlink="http://www.w3.org/1999/xlink">
	<desc>
			Created with Pixso.
	</desc>
	<defs>
		<clipPath id="clip3007_11348">
			<rect id="fa-brands:lyft" width="139.000000" height="99.000000" transform="translate(3.500000 0.000000)" fill="white" fill-opacity="0"/>
		</clipPath>
		<clipPath id="clip3007_11347">
			<rect id="col-md-3" width="146.000000" height="99.000000" fill="white" fill-opacity="0"/>
		</clipPath>
	</defs>
	<g clip-path="url(#clip3007_11347)">
		<rect id="fa-brands:lyft" width="139.000000" height="99.000000" transform="translate(3.500000 0.000000)" fill="#FFFFFF" fill-opacity="0"/>
		<g clip-path="url(#clip3007_11348)">
			<path id="Vector" d="M3.5 1.67041L24.6215 1.67041L24.6215 58.7456C24.6215 67.7979 28.6937 73.1855 32.0059 75.4277C28.558 78.4634 18.1058 81.1436 10.2328 74.6621C5.61755 70.8335 3.5 64.4614 3.5 58.5269L3.5 1.67041ZM135.414 49.1191L135.414 43.1025L141.876 43.1025L141.876 22.0991L134.79 22.0991C132.048 9.43701 120.89 0.0292969 107.56 0.0292969C92.194 0.0292969 79.6785 12.6094 79.6785 28.1157L79.6785 77.1235C84.0223 77.7524 89.2891 77.0415 93.7142 73.2949C98.3566 69.4658 100.447 63.1211 100.447 57.1592L100.447 55.3271L110.981 55.3271L110.981 34.3237L100.447 34.3237L100.447 27.9517C100.447 18.4893 114.619 18.4893 114.619 27.9517L114.619 49.0371C114.619 64.5161 127.107 77.1235 142.5 77.1235L142.5 56.2021C138.563 56.2021 135.414 53.0024 135.414 49.1191ZM55.5164 22.0444L55.5164 52.9478C55.5164 57.1592 49.0551 57.1592 49.0551 52.9478L49.0551 22.0444L28.2051 22.0444L28.2051 58.3354C28.2051 64.8442 30.377 73.1035 40.4219 75.8105C50.4668 78.4907 56.2223 72.9121 56.2223 72.9121C55.6522 76.5767 52.2858 79.2842 46.7474 79.8311C42.5394 80.2686 37.1912 78.8462 34.5306 77.6978L34.5306 96.9233C41.3449 98.9746 48.5121 99.6035 55.5978 98.209C68.3848 95.7202 76.4479 84.9722 76.4479 70.6421L76.4479 21.9077L55.5164 21.9077L55.5164 22.0444Z" fill="#737373" fill-opacity="1.000000" fill-rule="nonzero"/>
		</g>
	</g>
</svg>
