<svg width="149.000000" height="108.770508" viewBox="0 0 149 108.771" fill="none" xmlns="http://www.w3.org/2000/svg" xmlns:xlink="http://www.w3.org/1999/xlink">
	<desc>
			Created with Pixso.
	</desc>
	<defs/>
	<path id="Vector" d="M149 0C130.189 12.6187 128.187 21.7764 126.557 24.5781C124.997 27.4502 123.833 38.7739 121.132 44.2593C118.408 49.8149 108.514 54.1938 105.743 56.0303C103.02 57.8667 99.1548 65 95.9886 71.144C70.8215 70.1084 57.0158 80.2788 35.6436 93.1797C42.4883 90.896 45.7244 89.248 45.7244 89.248C67.6553 80.7729 78.1552 73.1689 111.168 77.6655C111.424 77.6655 111.61 77.8066 111.82 77.854C112.728 78.3716 113.054 79.478 112.542 80.3965L99.993 102.95C99.4109 104.056 98.177 104.645 96.9431 104.386C67.4225 98.7827 44.118 108.458 22.6992 108.765C5.61078 109.023 0 100.878 0 100.501C0 100.242 0.139709 100.101 0.395752 100.101C0.395752 100.101 9.3125 100.101 24.3987 96.499C41.5338 63.4697 56.8063 51.9102 73.4291 51.9102C73.4291 51.9102 90.1217 51.9102 94.5219 66.4829C99.83 57.1367 101.11 54.9004 101.11 54.9004C102.344 52.6875 109.259 36.7256 121.225 21.6118C133.215 6.54492 142.272 2.80127 149 0Z" fill="#737373" fill-opacity="1.000000" fill-rule="nonzero"/>
</svg>
