<svg width="148.976746" height="59.977051" viewBox="0 0 148.977 59.9771" fill="none" xmlns="http://www.w3.org/2000/svg" xmlns:xlink="http://www.w3.org/1999/xlink">
	<desc>
			Created with Pixso.
	</desc>
	<defs/>
	<path id="Vector" d="M38.3908 4.70459L28.31 6.79541L28.2634 39.1592C28.2634 45.1362 32.8731 49 38.9961 49C42.3951 49 44.8862 48.3862 46.2598 47.6592L46.2598 39.9771C44.9328 40.5 38.4141 42.3638 38.4141 36.4092L38.4141 22.0454L46.2598 22.0454L46.2598 13.4546L38.4141 13.4546L38.3908 4.70459ZM59.1344 16.4316L58.5058 13.4546L49.5658 13.4546L49.5658 48.2729L59.8794 48.2729L59.8794 24.8408C62.3239 21.7046 66.4447 22.3184 67.7717 22.7271L67.7717 13.4546C66.3748 12.9771 61.5556 12.0908 59.1344 16.4316ZM80.623 0L70.2395 2.15918L70.2395 10.3862L80.623 8.22705L80.623 0ZM10.43 23.7046C10.43 22.1362 11.7803 21.5229 13.9455 21.5C17.0884 21.5 21.0928 22.4316 24.2358 24.0908L24.2358 14.5908C20.8134 13.2729 17.3911 12.75 13.9688 12.75C5.58752 12.75 0 17.0229 0 24.1592C0 35.3408 15.7148 33.5229 15.7148 38.3408C15.7148 40.2046 14.0619 40.8184 11.757 40.8184C8.33472 40.8184 3.91125 39.4316 0.442322 37.5908L0.442322 46.6816C4.28375 48.2954 8.17169 48.9771 11.7338 48.9771C20.3245 48.9771 26.238 45.3862 26.238 38.1138C26.238 26.0908 10.43 28.25 10.43 23.7046ZM148.977 31.2729C148.977 20.9316 143.855 12.7729 134.03 12.7729C124.206 12.7729 118.222 20.9316 118.222 31.2046C118.222 43.3638 125.276 48.9771 135.334 48.9771C140.27 48.9771 143.971 47.8862 146.788 46.3638L146.788 38.7729C143.971 40.1592 140.735 41 136.638 41C132.61 41 129.071 39.6138 128.606 34.8862L148.837 34.8862C148.884 34.3638 148.977 32.25 148.977 31.2729ZM128.513 27.4546C128.513 22.9092 131.376 21 133.96 21C136.498 21 139.199 22.9092 139.199 27.4546L128.513 27.4546ZM102.228 12.7729C98.177 12.7729 95.5695 14.6362 94.1261 15.9316L93.5906 13.4316L84.4877 13.4316L84.4877 59.9771L94.8245 57.8408L94.8478 46.4316C96.3378 47.5 98.5495 48.9771 102.158 48.9771C109.562 48.9771 116.313 43.7046 116.313 30.8862C116.336 19.1592 109.492 12.7729 102.228 12.7729ZM99.7601 40.6138C97.3389 40.6138 95.8954 39.75 94.8943 38.7046L94.8245 23.7046C95.8954 22.5454 97.3854 21.7046 99.7601 21.7046C103.532 21.7046 106.139 25.8408 106.139 31.1138C106.162 36.5454 103.602 40.6138 99.7601 40.6138ZM70.2628 48.2729L80.6462 48.2729L80.6462 13.4546L70.2628 13.4546L70.2628 48.2729Z" fill="#737373" fill-opacity="1.000000" fill-rule="nonzero"/>
</svg>
