<svg width="152.525879" height="91.623047" viewBox="0 0 152.526 91.623" fill="none" xmlns="http://www.w3.org/2000/svg" xmlns:xlink="http://www.w3.org/1999/xlink">
	<desc>
			Created with Pixso.
	</desc>
	<defs/>
	<path id="Vector" d="M42.9954 33.1841C42.8238 38.5825 45.5215 40.9731 45.5883 42.4912C45.5565 42.8003 45.4512 43.0972 45.2812 43.3574C45.1113 43.6172 44.8815 43.833 44.6112 43.9858L41.5607 46.1211C41.166 46.3979 40.7006 46.5566 40.219 46.5791C40.1165 46.5742 38.2672 47.0151 35.3383 40.4751C33.5513 42.7056 31.2776 44.498 28.6914 45.7148C26.1052 46.9312 23.2748 47.54 20.4172 47.4941C16.5374 47.7061 6.02277 45.292 6.56378 34.0972C6.18481 24.9731 14.6808 19.3057 23.4677 19.7847C25.1597 19.7891 28.6153 19.8726 34.6662 21.2788L34.6662 17.5562C35.3073 11.2495 31.1629 6.35645 23.9872 7.09033C23.4152 7.09277 19.3638 6.97119 13.0627 9.5C11.3087 10.3057 11.0847 10.1724 10.5007 10.1724C8.7348 10.1724 9.46167 5.05273 9.80011 4.4043C11.0417 2.87891 18.3462 0.0307617 25.5148 0.0712891C30.3079 -0.352539 35.0754 1.12695 38.7867 4.18994C40.2953 5.87744 41.4463 7.85352 42.17 9.99854C42.8938 12.1431 43.1754 14.4126 42.9977 16.6694L42.9954 33.1841ZM22.4 40.9038C30.1286 40.792 33.4007 36.1445 34.1467 33.6416C34.7329 31.2466 34.6352 29.7305 34.6352 27.1113C32.3307 26.5581 29.0133 25.9551 25.2073 25.9507C21.5968 25.6787 15.0026 27.2925 15.2599 33.6392C14.9645 37.6411 17.91 41.123 22.4 40.9038ZM63.1332 46.3979C61.2601 46.5693 60.3878 45.2393 60.1114 43.9263L48.2432 4.68311C48.012 4.02051 47.8594 3.33643 47.7856 2.63818C47.7418 2.3501 47.8141 2.05664 47.9866 1.82227C48.1591 1.5874 48.4177 1.43115 48.7054 1.38672C48.7627 1.37744 48.1979 1.38672 54.0081 1.38672C56.1005 1.17725 56.782 2.82422 56.999 3.8584L65.5117 37.4243L73.4142 3.8584C73.5405 3.09082 74.1149 1.22021 76.4647 1.41797L80.5543 1.41797C81.0714 1.375 83.202 1.29883 83.5761 3.88965L91.5407 37.8843L100.327 3.88965C100.442 3.37012 100.976 1.17969 103.349 1.41797L108.049 1.41797C108.252 1.38672 109.515 1.22461 109.3 3.46289C109.198 3.90381 110.113 0.922363 96.7289 43.957C96.4548 45.2705 95.5802 46.6006 93.707 46.4287L89.2529 46.4287C86.6456 46.7026 86.2715 44.1265 86.231 43.8667L78.3284 11.1826L70.5163 43.833C70.4781 44.0933 70.104 46.6694 67.4944 46.3955L63.1332 46.3955L63.1332 46.3979ZM128.308 47.7397C126.907 47.7422 120.225 47.668 114.638 44.8105C114.082 44.5747 113.608 44.1792 113.277 43.6738C112.945 43.1685 112.771 42.5762 112.777 41.9717L112.777 39.4097C112.777 37.3955 114.255 37.7651 114.882 38.0059C117.274 38.9736 118.809 39.7075 121.747 40.2939C130.482 42.0884 134.323 39.7456 135.265 39.2261C138.399 37.3647 138.647 33.1055 136.516 30.896C134.018 28.8008 132.827 28.7222 123.854 25.8906C122.748 25.5835 113.44 22.647 113.418 13.4111C113.273 6.68066 119.388 0.0209961 129.986 0.0761719C133.006 0.0737305 141.051 1.06055 143.229 3.79883C143.551 4.29688 143.711 4.8833 143.687 5.47705L143.687 7.88672C143.687 8.94482 143.301 9.47363 142.526 9.47363C140.689 9.26904 137.429 6.81152 130.811 6.91162C129.169 6.82568 121.304 7.12842 121.657 12.8633C121.554 17.3818 127.999 19.0767 128.735 19.272C137.424 21.8867 140.329 22.3203 143.778 26.3223C147.862 31.6255 145.66 37.834 144.814 39.5361C140.267 48.4712 128.509 47.7446 128.308 47.7397ZM137.889 72.7324C121.199 85.0591 96.972 91.6206 76.286 91.6206C48.3743 91.8047 21.4033 81.5405 0.674927 62.8457C-0.881287 61.4419 0.491394 59.5186 2.38367 60.5889C25.3776 73.7432 51.4116 80.6548 77.9018 80.6382C97.6839 80.5317 117.25 76.5186 135.477 68.8281C138.284 67.6362 140.665 70.687 137.889 72.7324ZM144.845 64.7979C142.71 62.0522 130.718 63.5156 125.349 64.1567C123.73 64.3403 123.456 62.9365 124.922 61.8994C134.471 55.1855 150.155 57.1089 151.957 59.3662C153.756 61.623 151.468 77.3394 142.529 84.8472C141.156 86.0078 139.843 85.3955 140.453 83.8701C142.464 78.8052 146.981 67.5459 144.845 64.7979Z" fill="#737373" fill-opacity="1.000000" fill-rule="nonzero"/>
</svg>
