<svg width="148.515991" height="141.715332" viewBox="0 0 148.516 141.715" fill="none" xmlns="http://www.w3.org/2000/svg" xmlns:xlink="http://www.w3.org/1999/xlink">
	<desc>
			Created with Pixso.
	</desc>
	<defs/>
	<path id="Vector" d="M131.955 54.27C127.26 54.27 123.128 56.231 120.091 59.2983C108.916 51.4868 93.8597 46.4585 77.1755 45.9209L85.8463 6.45166L113.455 12.7134C113.455 19.5449 118.964 25.1108 125.726 25.1108C132.612 25.1108 138.153 19.3867 138.153 12.5557C138.153 5.72412 132.644 0 125.726 0C120.905 0 116.742 2.94141 114.676 6.95752L84.1873 0.126465C82.6534 -0.284668 81.1509 0.822266 80.744 2.37207L71.228 45.8892C54.6689 46.585 39.769 51.6133 28.5627 59.4248C25.5263 56.231 21.2379 54.27 16.5425 54.27C-0.861694 54.27 -6.55878 77.8628 9.37421 85.9272C8.81079 88.4258 8.56036 91.0825 8.56036 93.7388C8.56036 120.241 38.1099 141.715 74.3895 141.715C110.826 141.715 140.375 120.241 140.375 93.7388C140.375 91.0825 140.094 88.2993 139.405 85.8008C155.025 77.7046 149.265 54.27 131.955 54.27ZM34.6354 87.6035C34.6354 80.646 40.1446 75.0483 47.0624 75.0483C53.8238 75.0483 59.3331 80.6143 59.3331 87.6035C59.3331 94.4346 53.8238 100.001 47.0624 100.001C40.1759 100.033 34.6354 94.4346 34.6354 87.6035ZM101.717 117.174C90.3225 128.686 58.1749 128.686 46.7808 117.174C45.5286 116.067 45.5286 114.106 46.7808 112.841C47.8763 111.734 49.8171 111.734 50.9127 112.841C59.6147 121.854 88.4757 122.012 97.5534 112.841C98.649 111.734 100.59 111.734 101.685 112.841C102.969 114.106 102.969 116.067 101.717 117.174ZM101.466 100.033C94.7049 100.033 89.1957 94.4663 89.1957 87.6353C89.1957 80.6772 94.7049 75.0796 101.466 75.0796C108.353 75.0796 113.893 80.646 113.893 87.6353C113.862 94.4346 108.353 100.033 101.466 100.033Z" fill="#737373" fill-opacity="1.000000" fill-rule="nonzero"/>
</svg>
