<svg width="27.000000" height="28.000000" viewBox="0 0 27 28" fill="none" xmlns="http://www.w3.org/2000/svg" xmlns:xlink="http://www.w3.org/1999/xlink">
	<desc>
			Created with Pixso.
	</desc>
	<defs/>
	<path id="Vector" d="M13.5 14C15.2902 14 17.0071 13.2625 18.2729 11.9498C19.5388 10.637 20.25 8.85651 20.25 7C20.25 5.14349 19.5388 3.36304 18.2729 2.05023C17.0071 0.737488 15.2902 0 13.5 0C11.7098 0 9.99292 0.737488 8.72705 2.05023C7.46118 3.36304 6.75 5.14349 6.75 7C6.75 8.85651 7.46118 10.637 8.72705 11.9498C9.99292 13.2625 11.7098 14 13.5 14ZM18 7C18 8.23767 17.5259 9.42468 16.682 10.2998C15.8381 11.175 14.6935 11.6667 13.5 11.6667C12.3065 11.6667 11.1619 11.175 10.318 10.2998C9.47412 9.42468 9 8.23767 9 7C9 5.76233 9.47412 4.57532 10.318 3.7002C11.1619 2.82501 12.3065 2.33331 13.5 2.33331C14.6935 2.33331 15.8381 2.82501 16.682 3.7002C17.5259 4.57532 18 5.76233 18 7ZM27 25.6667C27 28 24.75 28 24.75 28L2.25 28C2.25 28 0 28 0 25.6667C0 23.3333 2.25 16.3333 13.5 16.3333C24.75 16.3333 27 23.3333 27 25.6667ZM24.75 25.6573C24.7477 25.0833 24.4035 23.3567 22.878 21.7747C21.411 20.2534 18.6503 18.6667 13.5 18.6667C8.34747 18.6667 5.58899 20.2534 4.12201 21.7747C2.5965 23.3567 2.25452 25.0833 2.25 25.6573L24.75 25.6573Z" fill="#23A6F0" fill-opacity="1.000000" fill-rule="nonzero"/>
</svg>
